<?xml version="1.0" standalone="no"?>
<svg xmlns="http://www.w3.org/2000/svg" width="32" height="32"><rect width="32" height="32" opacity="0"></rect><g><path d="M16.22 13.22Q16.58 13.31 16.78 13.63Q16.99 13.95 16.9 14.27L16.16 17.12L17.02 17.12Q17.41 17.12 17.66 17.38Q17.92 17.63 17.95 18.02Q17.95 18.37 17.7 18.64Q17.44 18.91 17.09 18.94L15.55 18.94Q14.94 18.94 14.51 18.43Q14.08 17.92 14.21 17.28L15.1 13.89Q15.2 13.5 15.54 13.31Q15.87 13.12 16.22 13.22ZM11.65 20.38Q12.48 21.34 13.6 21.87Q14.72 22.4 16 22.4Q17.28 22.4 18.4 21.87Q19.52 21.34 20.32 20.38Q20.58 20.1 20.96 20.06Q21.34 20.03 21.63 20.29Q21.92 20.54 21.95 20.91Q21.98 21.28 21.73 21.57Q20.67 22.85 19.18 23.54Q17.7 24.22 16 24.22Q14.34 24.22 12.83 23.54Q11.33 22.85 10.24 21.57Q10.02 21.28 10.05 20.9Q10.08 20.51 10.37 20.26Q10.66 20.03 11.02 20.06Q11.39 20.1 11.65 20.38ZM16 3.17Q12.51 3.17 9.57 4.9Q6.62 6.62 4.9 9.57Q3.17 12.51 3.17 16Q3.17 19.49 4.9 22.43Q6.62 25.38 9.57 27.1Q12.51 28.83 16 28.83Q19.49 28.83 22.43 27.1Q25.38 25.38 27.1 22.43Q28.83 19.49 28.83 16Q28.83 12.51 27.1 9.57Q25.38 6.62 22.43 4.9Q19.49 3.17 16 3.17ZM16 1.34Q19.97 1.34 23.34 3.31Q26.72 5.28 28.69 8.66Q30.66 12.03 30.66 16Q30.66 19.97 28.69 23.34Q26.72 26.72 23.34 28.69Q19.97 30.66 16 30.66Q12.03 30.66 8.66 28.69Q5.28 26.72 3.31 23.34Q1.34 19.97 1.34 16Q1.34 12.03 3.31 8.66Q5.28 5.28 8.66 3.31Q12.03 1.34 16 1.34ZM10.4 11.26Q11.01 11.26 11.44 11.7Q11.87 12.13 11.87 12.74Q11.87 13.34 11.44 13.78Q11.01 14.21 10.4 14.21Q9.79 14.21 9.36 13.78Q8.93 13.34 8.93 12.74Q8.93 12.13 9.36 11.7Q9.79 11.26 10.4 11.26ZM21.6 11.26Q22.21 11.26 22.62 11.7Q23.04 12.13 23.04 12.74Q23.04 13.34 22.62 13.78Q22.21 14.21 21.6 14.21Q20.99 14.21 20.56 13.78Q20.13 13.34 20.13 12.74Q20.13 12.13 20.56 11.7Q20.99 11.26 21.6 11.26Z" fill="rgba(0,0,0,0.9019607843137255)"></path></g></svg>