<?xml version="1.0" standalone="no"?>
<svg xmlns="http://www.w3.org/2000/svg" width="32" height="32"><rect width="32" height="32" opacity="0"></rect><g><path d="M16 1.34Q12 1.34 8.64 3.31Q5.28 5.28 3.31 8.64Q1.34 12 1.34 16Q1.34 20 3.31 23.36Q5.28 26.72 8.64 28.69Q12 30.66 16 30.66Q19.97 30.66 23.34 28.69Q26.72 26.72 28.69 23.34Q30.66 19.97 30.66 16Q30.66 12.03 28.69 8.66Q26.72 5.28 23.34 3.31Q19.97 1.34 16 1.34ZM16 28.67Q12.58 28.67 9.66 26.96Q6.75 25.25 5.04 22.34Q3.33 19.42 3.33 16Q3.33 12.58 5.04 9.66Q6.75 6.75 9.66 5.04Q12.58 3.33 16 3.33Q19.42 3.33 22.34 5.04Q25.25 6.75 26.96 9.66Q28.67 12.58 28.67 16Q28.67 19.42 26.96 22.34Q25.25 25.25 22.34 26.96Q19.42 28.67 16 28.67ZM11.23 12.32Q11.23 11.65 10.77 11.18Q10.3 10.72 9.6 10.72Q8.93 10.72 8.46 11.18Q8 11.65 8 12.32Q8 12.99 8.46 13.47Q8.93 13.95 9.6 13.95Q10.3 13.95 10.77 13.47Q11.23 12.99 11.23 12.32ZM22.3 10.75Q21.63 10.75 21.17 11.23Q20.7 11.71 20.7 12.38Q20.7 13.06 21.17 13.54Q21.63 14.02 22.3 14.02Q23.01 14.02 23.47 13.54Q23.94 13.06 23.94 12.38Q23.94 11.71 23.47 11.23Q23.01 10.75 22.3 10.75ZM22.72 19.1Q22.37 18.94 21.97 19.09Q21.57 19.23 21.41 19.62Q20.7 21.22 19.25 22.13Q17.79 23.04 16 23.04Q14.18 23.04 12.74 22.13Q11.3 21.22 10.56 19.58Q10.4 19.2 10 19.06Q9.6 18.91 9.22 19.07Q8.83 19.23 8.7 19.63Q8.58 20.03 8.74 20.42Q9.73 22.56 11.68 23.81Q13.63 25.06 16 25.06Q18.37 25.06 20.3 23.82Q22.24 22.59 23.23 20.45Q23.39 20.06 23.25 19.66Q23.1 19.26 22.72 19.1Z" fill="rgba(255,0,0,1)"></path></g></svg>