<?xml version="1.0" standalone="no"?>
<svg xmlns="http://www.w3.org/2000/svg" width="32" height="32"><rect width="32" height="32" opacity="0"></rect><g><path d="M25.34 14.98Q26.34 14.98 27.17 14.48Q28 13.98 28.5 13.15Q28.99 12.32 28.99 11.33L28.99 6.66Q28.99 5.66 28.5 4.82Q28 3.97 27.17 3.47Q26.34 2.98 25.34 2.98L20.67 2.98Q19.68 2.98 18.83 3.47Q17.98 3.97 17.49 4.82Q16.99 5.66 16.99 6.66L16.99 11.33Q16.99 12.32 17.49 13.15Q17.98 13.98 18.83 14.48Q19.68 14.98 20.67 14.98L25.34 14.98ZM25.34 4.99Q26.02 4.99 26.51 5.47Q27.01 5.95 27.01 6.66L27.01 11.33Q27.01 12 26.51 12.5Q26.02 12.99 25.34 12.99L20.67 12.99Q19.97 12.99 19.49 12.5Q19.01 12 19.01 11.33L19.01 6.66Q19.01 5.95 19.49 5.47Q19.97 4.99 20.67 4.99L25.34 4.99ZM25.34 28.99Q26.34 28.99 27.17 28.5Q28 28 28.5 27.15Q28.99 26.3 28.99 25.31L28.99 20.64Q28.99 19.65 28.5 18.82Q28 17.98 27.17 17.49Q26.34 16.99 25.34 16.99L20.67 16.99Q19.68 16.99 18.83 17.49Q17.98 17.98 17.49 18.82Q16.99 19.65 16.99 20.64L16.99 25.31Q16.99 26.3 17.49 27.15Q17.98 28 18.83 28.5Q19.68 28.99 20.67 28.99L25.34 28.99ZM25.34 18.98Q26.02 18.98 26.51 19.47Q27.01 19.97 27.01 20.64L27.01 25.31Q27.01 26.02 26.51 26.5Q26.02 26.98 25.34 26.98L20.67 26.98Q19.97 26.98 19.49 26.5Q19.01 26.02 19.01 25.31L19.01 20.64Q19.01 19.97 19.49 19.47Q19.97 18.98 20.67 18.98L25.34 18.98ZM11.33 28.99Q12.32 28.99 13.17 28.5Q14.02 28 14.51 27.15Q15.01 26.3 15.01 25.31L15.01 20.64Q15.01 19.65 14.51 18.82Q14.02 17.98 13.17 17.49Q12.32 16.99 11.33 16.99L6.66 16.99Q5.66 16.99 4.83 17.49Q4 17.98 3.5 18.82Q3.01 19.65 3.01 20.64L3.01 25.31Q3.01 26.3 3.5 27.15Q4 28 4.83 28.5Q5.66 28.99 6.66 28.99L11.33 28.99ZM11.33 18.98Q12.03 18.98 12.51 19.47Q12.99 19.97 12.99 20.64L12.99 25.31Q12.99 26.02 12.51 26.5Q12.03 26.98 11.33 26.98L6.66 26.98Q5.98 26.98 5.49 26.5Q4.99 26.02 4.99 25.31L4.99 20.64Q4.99 19.97 5.49 19.47Q5.98 18.98 6.66 18.98L11.33 18.98ZM11.33 14.98Q12.32 14.98 13.17 14.48Q14.02 13.98 14.51 13.15Q15.01 12.32 15.01 11.33L15.01 6.66Q15.01 5.66 14.51 4.82Q14.02 3.97 13.17 3.47Q12.32 2.98 11.33 2.98L6.66 2.98Q5.66 2.98 4.83 3.47Q4 3.97 3.5 4.82Q3.01 5.66 3.01 6.66L3.01 11.33Q3.01 12.32 3.5 13.15Q4 13.98 4.83 14.48Q5.66 14.98 6.66 14.98L11.33 14.98ZM11.33 4.99Q12.03 4.99 12.51 5.47Q12.99 5.95 12.99 6.66L12.99 11.33Q12.99 12 12.51 12.5Q12.03 12.99 11.33 12.99L6.66 12.99Q5.98 12.99 5.49 12.5Q4.99 12 4.99 11.33L4.99 6.66Q4.99 5.95 5.49 5.47Q5.98 4.99 6.66 4.99L11.33 4.99Z" fill="rgba(0,0,0,1)"></path></g></svg>