<?xml version="1.0" standalone="no"?>
<svg xmlns="http://www.w3.org/2000/svg" width="32" height="32"><rect width="32" height="32" opacity="0"></rect><g><path d="M25.34 15.01Q26.34 15.01 27.17 14.51Q28 14.02 28.5 13.17Q28.99 12.32 28.99 11.33L28.99 6.66Q28.99 5.66 28.5 4.83Q28 4 27.17 3.5Q26.34 3.01 25.34 3.01L20.67 3.01Q19.68 3.01 18.83 3.5Q17.98 4 17.49 4.83Q16.99 5.66 16.99 6.66L16.99 11.33Q16.99 12.32 17.49 13.17Q17.98 14.02 18.83 14.51Q19.68 15.01 20.67 15.01L25.34 15.01ZM25.34 28.99Q26.34 28.99 27.17 28.5Q28 28 28.5 27.17Q28.99 26.34 28.99 25.34L28.99 20.67Q28.99 19.68 28.5 18.83Q28 17.98 27.17 17.49Q26.34 16.99 25.34 16.99L20.67 16.99Q19.68 16.99 18.83 17.49Q17.98 17.98 17.49 18.83Q16.99 19.68 16.99 20.67L16.99 25.34Q16.99 26.34 17.49 27.17Q17.98 28 18.83 28.5Q19.68 28.99 20.67 28.99L25.34 28.99ZM11.33 28.99Q12.32 28.99 13.17 28.5Q14.02 28 14.51 27.17Q15.01 26.34 15.01 25.34L15.01 20.67Q15.01 19.68 14.51 18.83Q14.02 17.98 13.17 17.49Q12.32 16.99 11.33 16.99L6.66 16.99Q5.66 16.99 4.83 17.49Q4 17.98 3.5 18.83Q3.01 19.68 3.01 20.67L3.01 25.34Q3.01 26.34 3.5 27.17Q4 28 4.83 28.5Q5.66 28.99 6.66 28.99L11.33 28.99ZM11.33 15.01Q12.32 15.01 13.15 14.51Q13.98 14.02 14.48 13.17Q14.98 12.32 14.98 11.33L14.98 6.66Q14.98 5.66 14.48 4.83Q13.98 4 13.15 3.5Q12.32 3.01 11.33 3.01L6.66 3.01Q5.66 3.01 4.82 3.5Q3.97 4 3.47 4.83Q2.98 5.66 2.98 6.66L2.98 11.33Q2.98 12.32 3.47 13.17Q3.97 14.02 4.82 14.51Q5.66 15.01 6.66 15.01L11.33 15.01Z" fill="rgba(255,0,0,1)"></path></g></svg>