<?xml version="1.0" standalone="no"?>
<svg xmlns="http://www.w3.org/2000/svg" width="32" height="32"><rect width="32" height="32" opacity="0"></rect><g><path d="M22.91 21.44Q24.13 19.94 24.82 18.08Q25.5 16.22 25.5 14.24Q25.5 11.17 23.97 8.56Q22.43 5.95 19.82 4.43Q17.22 2.91 14.14 2.91Q11.07 2.91 8.46 4.43Q5.86 5.95 4.34 8.56Q2.82 11.17 2.82 14.24Q2.82 17.31 4.34 19.92Q5.86 22.53 8.46 24.05Q11.07 25.57 14.14 25.57Q16.22 25.57 18.1 24.86Q19.97 24.16 21.5 22.88L27.46 28.8Q27.74 29.09 28.16 29.09Q28.58 29.09 28.86 28.8Q29.15 28.51 29.15 28.1Q29.15 27.68 28.86 27.39L22.91 21.44ZM4.83 14.24Q4.83 11.71 6.1 9.57Q7.36 7.42 9.49 6.16Q11.62 4.9 14.14 4.9Q16.67 4.9 18.82 6.16Q20.96 7.42 22.22 9.57Q23.49 11.71 23.49 14.24Q23.49 16.77 22.22 18.91Q20.96 21.06 18.82 22.32Q16.67 23.58 14.14 23.58Q11.62 23.58 9.49 22.32Q7.36 21.06 6.1 18.91Q4.83 16.77 4.83 14.24Z" fill="rgba(255,0,0,1)"></path></g></svg>